Coordinates
version=1
nRows=60
nColumns=12
inDegrees=yes

Units are S.I. units (second, meters, Newtons, ...)
Angles are in degrees

endheader
time	SC_y	SC_z	SC_x	AC_y	AC_z	AC_x	GH_y	GH_z	GH_yy	EL_x	PS_y
       0.0              -49.63           32.9          15.68          39.53         -16.79         -15.28          -53.1          29.31         -31.88          98.39          7.154
   0.03839              -49.62           32.9          15.69          39.53         -16.79         -15.27         -53.11          29.31         -31.86           98.4          7.161
   0.07677              -49.62           32.9           15.7          39.54         -16.79         -15.27         -53.12          29.31         -31.85           98.4          7.169
    0.1152              -49.62          32.89           15.7          39.54         -16.78         -15.27         -53.13          29.31         -31.83          98.41          7.177
    0.1535              -49.61          32.89          15.71          39.55         -16.78         -15.27         -53.14          29.31         -31.82          98.41          7.186
    0.1919              -49.61          32.89          15.72          39.55         -16.78         -15.26         -53.16          29.31          -31.8          98.42          7.195
    0.2303               -49.6          32.89          15.74          39.55         -16.78         -15.26         -53.17          29.31         -31.78          98.42          7.205
    0.2687               -49.6          32.89          15.75          39.56         -16.77         -15.26         -53.18          29.31         -31.76          98.43          7.216
    0.3071              -49.59          32.89          15.76          39.56         -16.77         -15.25          -53.2          29.31         -31.74          98.43          7.228
    0.3455              -49.59          32.89          15.77          39.57         -16.76         -15.25         -53.22          29.31         -31.71          98.44           7.24
    0.3839              -49.58          32.89          15.79          39.58         -16.76         -15.24         -53.23          29.31         -31.69          98.45          7.253
    0.4223              -49.57          32.88           15.8          39.58         -16.76         -15.24         -53.25          29.31         -31.66          98.46          7.267
    0.4606              -49.57          32.88          15.82          39.59         -16.75         -15.23         -53.27          29.31         -31.63          98.46          7.282
     0.499              -49.56          32.88          15.84           39.6         -16.75         -15.23         -53.29           29.3          -31.6          98.47          7.299
    0.5374              -49.55          32.88          15.86          39.61         -16.74         -15.22         -53.32           29.3         -31.57          98.48          7.317
    0.5758              -49.54          32.88          15.88          39.62         -16.73         -15.22         -53.34           29.3         -31.53          98.49          7.336
    0.6142              -49.53          32.87           15.9          39.63         -16.73         -15.21         -53.37           29.3         -31.49          98.51          7.357
    0.6526              -49.52          32.87          15.93          39.64         -16.72          -15.2          -53.4           29.3         -31.45          98.52           7.38
     0.691              -49.51          32.87          15.96          39.65         -16.71         -15.19         -53.44           29.3          -31.4          98.53          7.405
    0.7294              -49.49          32.87          15.99          39.66          -16.7         -15.18         -53.47           29.3         -31.35          98.55          7.433
    0.7677              -49.48          32.86          16.02          39.67         -16.69         -15.17         -53.51          29.29         -31.29          98.56          7.463
    0.8061              -49.46          32.86          16.06          39.69         -16.68         -15.16         -53.56          29.29         -31.23          98.58          7.496
    0.8445              -49.45          32.86           16.1          39.71         -16.67         -15.15         -53.61          29.29         -31.16           98.6          7.533
    0.8829              -49.43          32.85          16.14          39.73         -16.66         -15.14         -53.66          29.29         -31.08          98.62          7.573
    0.9213              -49.41          32.85          16.19          39.75         -16.65         -15.12         -53.72          29.28          -31.0          98.65          7.618
    0.9597              -49.38          32.84          16.25          39.77         -16.63          -15.1         -53.79          29.28          -30.9          98.68          7.668
    0.9981              -49.35          32.83          16.31           39.8         -16.61         -15.09         -53.87          29.28          -30.8          98.71          7.725
     1.036              -49.32          32.83          16.38          39.83         -16.59         -15.06         -53.95          29.27         -30.68          98.74          7.788
     1.075              -49.29          32.82          16.46          39.86         -16.57         -15.04         -54.05          29.27         -30.54          98.78           7.86
     1.113              -49.25          32.81          16.55           39.9         -16.54         -15.01         -54.16          29.26         -30.39          98.82          7.941
     1.152              -49.21           32.8          16.66          39.94         -16.51         -14.98         -54.28          29.26         -30.21          98.88          8.034
      1.19              -49.16          32.79          16.78          39.99         -16.48         -14.95         -54.42          29.25         -30.01          98.93          8.141
     1.228               -49.1          32.77          16.91          40.05         -16.44         -14.91         -54.59          29.24         -29.78           99.0          8.264
     1.267              -49.03          32.76          17.07          40.12          -16.4         -14.86         -54.78          29.24          -29.5          99.08          8.406
     1.305              -48.95          32.74          17.26           40.2         -16.34          -14.8          -55.0          29.23         -29.19          99.17          8.574
     1.344              -48.86          32.72          17.48          40.29         -16.28         -14.74         -55.27          29.21         -28.81          99.28          8.771
     1.382              -48.74          32.69          17.74           40.4         -16.21         -14.66         -55.58           29.2         -28.37          99.41          9.005
      1.42              -48.61          32.66          18.05          40.53         -16.12         -14.56         -55.96          29.18         -27.84          99.56          9.286
     1.459              -48.45          32.62          18.43          40.69         -16.01         -14.45         -56.41          29.16         -27.19          99.75          9.626
     1.497              -48.25          32.58          18.89          40.88         -15.88         -14.31         -56.97          29.13         -26.41          99.98          10.04
     1.535              -48.01          32.52          19.46          41.12         -15.72         -14.14         -57.66           29.1         -25.44          100.3          10.55
     1.574               -47.7          32.45          20.17          41.42         -15.51         -13.92         -58.51          29.06         -24.23          100.6          11.19
     1.612              -47.32          32.36          21.06           41.8         -15.26         -13.65         -59.59          29.01          -22.7          101.0           12.0
     1.651              -46.83          32.25           22.2          42.28         -14.94         -13.31         -60.96          28.95         -20.77          101.6          13.02
     1.689              -46.21          32.11          23.65          42.89         -14.52         -12.87         -62.72          28.87         -18.28          102.3          14.33
     1.727              -45.41          31.92          25.52          43.68         -13.99         -12.31         -64.97          28.76          -15.1          103.2          16.01
     1.766              -44.39          31.68          27.91          44.69         -13.31         -11.59         -67.85          28.63         -11.04          104.4          18.15
     1.804               -43.1          31.38          30.91          45.95         -12.46         -10.68         -71.46          28.46         -5.924          105.9          20.85
     1.843              -41.54          31.02          34.56          47.49         -11.42          -9.58         -75.87          28.26         0.3066          107.7          24.14
     1.881              -39.72           30.6           38.8          49.28         -10.21         -8.302         -80.98          28.02          7.528          109.8          27.95
     1.919              -37.76          30.15          43.38          51.22         -8.904         -6.918         -86.51          27.77          15.35          112.0          32.08
     1.958              -35.79          29.69          47.97          53.15         -7.598         -5.533         -92.04          27.51          23.17          114.3          36.21
     1.996              -33.98          29.27          52.21          54.94         -6.392         -4.255         -97.15          27.27          30.39          116.4          40.02
     2.035              -32.41          28.91          55.86          56.48         -5.351         -3.152         -101.6          27.07          36.62          118.2          43.31
     2.073              -31.13          28.61          58.86          57.75         -4.497         -2.247         -105.2           26.9          41.73          119.7          46.01
     2.111               -30.1          28.37          61.25          58.75         -3.818         -1.527         -108.1          26.77           45.8          120.9          48.15
      2.15               -29.3          28.19          63.12          59.54         -3.286        -0.9639         -110.3          26.66          48.98          121.8          49.83
     2.188              -28.68          28.04          64.57          60.15         -2.872        -0.5249         -112.1          26.58          51.46          122.5          51.14
     2.226              -28.19          27.93          65.71          60.63         -2.548        -0.1818         -113.4          26.52           53.4          123.1          52.16
     2.265              -27.81          27.84           66.6          61.01         -2.294        0.08804         -114.5          26.47          54.92          123.5          52.97
